<svg width="362" height="215" viewBox="0 0 562 415" fill="none" xmlns="http://www.w3.org/2000/svg">
<g clip-path="url(#clip0_1_96)">
<path d="M477.162 415H453.399C453.047 414.362 452.719 413.707 452.416 413.045C449.681 407.197 448.526 400.67 447.421 394.273L445.628 383.885C451.36 388.049 457.089 392.209 462.816 396.367C464.683 397.725 466.591 399.14 468.384 400.67C472.159 403.868 475.418 407.565 476.695 412.26C476.761 412.521 476.827 412.783 476.876 413.045C477.012 413.69 477.108 414.343 477.162 415Z" fill="#F0F0F0"/>
<path d="M480.495 413.045C480.496 413.086 480.493 413.127 480.487 413.168C480.407 413.793 480.259 414.407 480.045 415H469.375C469.039 414.372 468.754 413.718 468.523 413.045C468.199 412.146 467.966 411.217 467.827 410.272C467.473 407.063 467.661 403.817 468.384 400.67C468.588 399.647 468.809 398.617 469.031 397.602L470.292 391.812L476.605 401.946C478.718 405.34 480.913 409.078 480.495 413.045Z" fill="#F0F0F0"/>
<path d="M561.187 29.8976H0.813321C0.596004 29.8927 0.389217 29.8031 0.237227 29.6479C0.0852374 29.4927 0.00012207 29.2842 0.00012207 29.0671C0.00012207 28.8499 0.0852374 28.6414 0.237227 28.4862C0.389217 28.331 0.596004 28.2414 0.813321 28.2366H561.187C561.404 28.2414 561.611 28.331 561.763 28.4862C561.915 28.6414 562 28.8499 562 29.0671C562 29.2842 561.915 29.4927 561.763 29.6479C561.611 29.8031 561.404 29.8927 561.187 29.8976Z" fill="#CACACA"/>
<path d="M19.1202 18.2707C24.0612 18.2707 28.0667 14.1807 28.0667 9.13536C28.0667 4.09004 24.0612 0 19.1202 0C14.1792 0 10.1738 4.09004 10.1738 9.13536C10.1738 14.1807 14.1792 18.2707 19.1202 18.2707Z" fill="#3F3D56"/>
<path d="M50.0258 18.2707C54.9668 18.2707 58.9723 14.1807 58.9723 9.13536C58.9723 4.09004 54.9668 0 50.0258 0C45.0848 0 41.0793 4.09004 41.0793 9.13536C41.0793 14.1807 45.0848 18.2707 50.0258 18.2707Z" fill="#3F3D56"/>
<path d="M80.9314 18.2707C85.8724 18.2707 89.8778 14.1807 89.8778 9.13536C89.8778 4.09004 85.8724 0 80.9314 0C75.9904 0 71.9849 4.09004 71.9849 9.13536C71.9849 14.1807 75.9904 18.2707 80.9314 18.2707Z" fill="#3F3D56"/>
<path d="M542.669 5.58795H520.709C520.275 5.57837 519.861 5.39916 519.557 5.08871C519.253 4.77826 519.083 4.36125 519.083 3.92697C519.083 3.4927 519.253 3.07568 519.557 2.76523C519.861 2.45478 520.275 2.27558 520.709 2.26599H542.669C543.104 2.27558 543.517 2.45478 543.821 2.76523C544.125 3.07568 544.296 3.4927 544.296 3.92697C544.296 4.36125 544.125 4.77826 543.821 5.08871C543.517 5.39916 543.104 5.57837 542.669 5.58795Z" fill="#3F3D56"/>
<path d="M542.669 11.8166H520.709C520.275 11.807 519.861 11.6278 519.557 11.3173C519.253 11.0069 519.083 10.5899 519.083 10.1556C519.083 9.72132 519.253 9.30432 519.557 8.99387C519.861 8.68342 520.275 8.50422 520.709 8.49463H542.669C543.104 8.50422 543.517 8.68342 543.821 8.99387C544.125 9.30432 544.296 9.72132 544.296 10.1556C544.296 10.5899 544.125 11.0069 543.821 11.3173C543.517 11.6278 543.104 11.807 542.669 11.8166Z" fill="#3F3D56"/>
<path d="M542.669 18.0451H520.709C520.275 18.0355 519.861 17.8563 519.557 17.5459C519.253 17.2354 519.083 16.8184 519.083 16.3841C519.083 15.9498 519.253 15.5328 519.557 15.2224C519.861 14.9119 520.275 14.7327 520.709 14.7231H542.669C543.104 14.7327 543.517 14.9119 543.821 15.2224C544.125 15.5328 544.296 15.9498 544.296 16.3841C544.296 16.8184 544.125 17.2354 543.821 17.5459C543.517 17.8563 543.104 18.0355 542.669 18.0451Z" fill="#3F3D56"/>
<path d="M478.565 312.431H53.0887C48.5933 312.426 44.2836 310.64 41.1049 307.465C37.9263 304.29 36.1383 299.985 36.1332 295.495V83.9862C36.1384 79.4961 37.9264 75.1914 41.105 72.0164C44.2837 68.8414 48.5934 67.0555 53.0887 67.0504H478.565C483.06 67.0555 487.37 68.8414 490.549 72.0164C493.727 75.1914 495.515 79.4961 495.521 83.9862V295.495C495.516 299.985 493.728 304.29 490.549 307.465C487.37 310.64 483.06 312.426 478.565 312.431Z" fill="#F0F0F0"/>
<path d="M525.27 370.14H99.7933C95.298 370.135 90.9883 368.349 87.8096 365.174C84.6309 361.999 82.8429 357.694 82.8379 353.204V141.695C82.843 137.205 84.631 132.9 87.8097 129.725C90.9884 126.55 95.298 124.764 99.7933 124.759H525.27C529.765 124.764 534.075 126.55 537.253 129.725C540.432 132.9 542.22 137.205 542.225 141.695V353.203C542.22 357.694 540.432 361.999 537.254 365.174C534.075 368.349 529.765 370.135 525.27 370.14Z" fill="white"/>
<path d="M525.27 370.14H99.7933C95.298 370.135 90.9883 368.349 87.8096 365.174C84.6309 361.999 82.8429 357.694 82.8379 353.204V141.695C82.843 137.205 84.631 132.9 87.8097 129.725C90.9884 126.55 95.298 124.764 99.7933 124.759H525.27C529.765 124.764 534.075 126.55 537.253 129.725C540.432 132.9 542.22 137.205 542.225 141.695V353.203C542.22 357.694 540.432 361.999 537.254 365.174C534.075 368.349 529.765 370.135 525.27 370.14ZM99.7933 127.213C95.9494 127.217 92.2641 128.745 89.546 131.46C86.8279 134.174 85.2989 137.856 85.2945 141.695V353.203C85.2988 357.043 86.8278 360.724 89.5459 363.439C92.264 366.154 95.9493 367.682 99.7933 367.686H525.27C529.114 367.682 532.799 366.154 535.517 363.439C538.235 360.724 539.764 357.043 539.769 353.203V141.695C539.764 137.856 538.235 134.175 535.517 131.46C532.799 128.745 529.114 127.217 525.27 127.213H99.7933Z" fill="#E4E4E4"/>
<path d="M132.466 333.11H472.692V274.863C472.64 268.721 471.361 262.651 468.929 257.01C466.497 251.369 462.961 246.269 458.53 242.012L458.437 241.921C452.36 235.831 432.052 220.375 411.041 221.685C399.941 222.375 390.439 227.718 382.797 237.566C359.012 268.23 327.767 257.879 311.259 248.98C296.711 241.136 281.854 237.454 267.098 238.04C246.431 238.847 217.342 246.452 196.128 278.098C188.025 290.175 170.404 306.569 132.466 316.203L132.466 333.11Z" fill="#08C9C9"/>
<path d="M491.942 334.464H133.121C132.824 334.464 132.538 334.346 132.327 334.135C132.117 333.925 131.998 333.64 131.998 333.342V161.556C131.998 161.259 132.117 160.974 132.327 160.763C132.538 160.553 132.824 160.435 133.121 160.435C133.419 160.435 133.705 160.553 133.915 160.763C134.126 160.974 134.244 161.259 134.244 161.556V332.221H491.942C492.239 332.221 492.525 332.339 492.736 332.549C492.946 332.759 493.065 333.045 493.065 333.342C493.065 333.64 492.946 333.925 492.736 334.135C492.525 334.346 492.239 334.464 491.942 334.464Z" fill="#3F3D56"/>
<path d="M266.348 246.534C270.069 246.534 273.085 243.521 273.085 239.804C273.085 236.088 270.069 233.075 266.348 233.075C262.626 233.075 259.61 236.088 259.61 239.804C259.61 243.521 262.626 246.534 266.348 246.534Z" fill="#3F3D56"/>
<path d="M398.494 228.935C402.215 228.935 405.232 225.922 405.232 222.205C405.232 218.488 402.215 215.475 398.494 215.475C394.773 215.475 391.757 218.488 391.757 222.205C391.757 225.922 394.773 228.935 398.494 228.935Z" fill="#3F3D56"/>
<path d="M332.422 265.234C336.143 265.234 339.16 262.221 339.16 258.504C339.16 254.787 336.143 251.774 332.422 251.774C328.701 251.774 325.684 254.787 325.684 258.504C325.684 262.221 328.701 265.234 332.422 265.234Z" fill="#3F3D56"/>
<path d="M200.273 275.134C203.994 275.134 207.011 272.121 207.011 268.404C207.011 264.687 203.994 261.674 200.273 261.674C196.552 261.674 193.536 264.687 193.536 268.404C193.536 272.121 196.552 275.134 200.273 275.134Z" fill="#3F3D56"/>
<path d="M464.569 253.134C468.29 253.134 471.306 250.121 471.306 246.404C471.306 242.687 468.29 239.674 464.569 239.674C460.847 239.674 457.831 242.687 457.831 246.404C457.831 250.121 460.847 253.134 464.569 253.134Z" fill="#3F3D56"/>
<path d="M542.623 267.573C541.879 266.858 541.302 265.987 540.931 265.024C540.56 264.061 540.405 263.029 540.477 262C540.549 260.97 540.846 259.969 541.347 259.067C541.848 258.165 542.541 257.383 543.377 256.777L536.113 232.769L548.618 236.49L553.599 258.718C554.525 260.189 554.878 261.947 554.593 263.661C554.307 265.374 553.402 266.924 552.049 268.015C550.696 269.107 548.989 269.665 547.252 269.583C545.515 269.502 543.868 268.787 542.623 267.573Z" fill="#9E616A"/>
<path d="M424.711 124.807C424.578 125.831 424.672 126.87 424.985 127.854C425.298 128.837 425.824 129.74 426.524 130.498C427.224 131.256 428.082 131.852 429.038 132.244C429.994 132.635 431.024 132.812 432.056 132.763L441.412 156.037L448.844 145.325L438.82 124.865C438.622 123.139 437.797 121.546 436.502 120.387C435.206 119.228 433.53 118.584 431.791 118.577C430.052 118.57 428.37 119.2 427.066 120.348C425.761 121.497 424.923 123.083 424.711 124.807Z" fill="#9E616A"/>
<path d="M530.197 404.724H521.583L517.485 371.535L530.199 371.535L530.197 404.724Z" fill="#9E616A"/>
<path d="M532.394 413.065L504.617 413.064V412.713C504.618 409.849 505.757 407.102 507.784 405.077C509.812 403.052 512.562 401.914 515.429 401.914H515.43L532.395 401.915L532.394 413.065Z" fill="#2F2E41"/>
<path d="M502.007 404.451L493.795 401.854L499.916 368.976L512.037 372.81L502.007 404.451Z" fill="#9E616A"/>
<path d="M501.582 413.065L475.101 404.691L475.207 404.356C476.072 401.626 477.988 399.351 480.533 398.031C483.078 396.712 486.043 396.456 488.777 397.32L488.778 397.32L504.951 402.435L501.582 413.065Z" fill="#2F2E41"/>
<path d="M491.805 242.515C491.805 242.515 479.023 262.561 483.54 280.453C488.056 298.345 492.975 332.735 492.975 332.735L517.464 390.949L535.719 390.206L517.59 321.569L518.307 275.678C518.307 275.678 530.907 253.745 528.453 246.918C526 240.091 491.805 242.515 491.805 242.515Z" fill="#2F2E41"/>
<path d="M533.563 249.682C533.563 249.682 535.135 269.568 530.217 277.991C525.298 286.413 520.058 318.469 520.058 318.469L511.697 382.581L494.381 376.952L509.147 305.122L520.753 248.621L533.563 249.682Z" fill="#2F2E41"/>
<path d="M539.702 153.412L526.192 144.136L505.632 143.539L498.472 150.551L487.546 156.124L486.534 246.918C486.534 246.918 519.253 262.583 536.856 255.022L545.324 184.294C548.837 170.256 539.702 153.412 539.702 153.412Z" fill="#3F3D56"/>
<path d="M490.289 180.387H454.251L430.574 139.678L445.97 133.587L459.008 156.754L477.88 155.048L489.663 154.478C491.551 154.387 493.436 154.709 495.187 155.422C496.938 156.135 498.511 157.221 499.798 158.604C501.084 159.988 502.053 161.635 502.635 163.432C503.217 165.228 503.4 167.13 503.169 169.004C502.78 172.144 501.257 175.033 498.885 177.129C496.513 179.225 493.456 180.384 490.289 180.387Z" fill="#3F3D56"/>
<path d="M517.587 136.062C527.433 136.062 535.414 128.09 535.414 118.256C535.414 108.422 527.433 100.45 517.587 100.45C507.742 100.45 499.761 108.422 499.761 118.256C499.761 128.09 507.742 136.062 517.587 136.062Z" fill="#9E616A"/>
<path d="M539.066 114.205C538.519 110.296 535.868 106.584 532.099 105.4C530.601 101.056 526.635 97.8586 522.253 96.4647C518.195 95.1722 513.822 95.2619 509.82 96.7197C505.818 98.1775 502.414 100.921 500.142 104.52C499.807 105.046 498.776 106.34 498.805 106.969C498.841 107.767 500.064 108.591 500.678 109.094C502.2 110.269 503.842 111.282 505.576 112.114C511.986 115.433 509.852 120.65 509.765 126.562C509.723 129.435 510.683 131.887 513.135 133.528C516.675 135.897 521.74 134.954 525.591 134.004C529.961 132.925 533.594 129.091 536.086 125.394C538.293 122.12 539.614 118.114 539.066 114.205Z" fill="#2F2E41"/>
<path d="M538.889 176.246L554.005 251.051L531.72 252.269L538.889 176.246Z" fill="#3F3D56"/>
<path d="M554.496 414.019C554.497 414.147 554.472 414.274 554.423 414.393C554.375 414.512 554.303 414.62 554.213 414.711C554.122 414.802 554.015 414.875 553.896 414.924C553.778 414.974 553.65 415 553.522 415H437.815C437.556 415 437.307 414.897 437.123 414.714C436.94 414.531 436.837 414.282 436.837 414.023C436.837 413.763 436.94 413.515 437.123 413.332C437.307 413.148 437.556 413.045 437.815 413.045H553.522C553.78 413.046 554.028 413.149 554.21 413.331C554.393 413.513 554.496 413.761 554.496 414.019Z" fill="#CACACA"/>
<path fill-rule="evenodd" clip-rule="evenodd" d="M173.633 137.037C168.11 137.037 163.633 141.515 163.633 147.037V173.689C163.633 179.211 168.11 183.689 173.633 183.689H381.67L394.119 205.204L406.568 183.689H408.821C414.344 183.689 418.821 179.211 418.821 173.689V147.037C418.821 141.515 414.344 137.037 408.821 137.037H173.633Z" fill="#07C9C9"/>
<path d="M184.454 153.256V166.756H181.923V153.256H184.454ZM184.094 161.667H183.399C183.405 161.005 183.493 160.396 183.663 159.839C183.833 159.277 184.076 158.79 184.392 158.38C184.709 157.964 185.087 157.642 185.526 157.413C185.971 157.185 186.464 157.071 187.003 157.071C187.471 157.071 187.896 157.138 188.277 157.273C188.664 157.402 188.995 157.613 189.27 157.906C189.552 158.193 189.768 158.571 189.921 159.039C190.073 159.508 190.149 160.077 190.149 160.745V166.756H187.6V160.727C187.6 160.305 187.539 159.974 187.416 159.734C187.299 159.488 187.126 159.315 186.897 159.215C186.675 159.11 186.399 159.057 186.071 159.057C185.708 159.057 185.397 159.124 185.139 159.259C184.887 159.394 184.685 159.581 184.533 159.822C184.381 160.056 184.269 160.331 184.199 160.648C184.129 160.964 184.094 161.304 184.094 161.667ZM196.732 157.246V159.039H191.195V157.246H196.732ZM192.566 154.9H195.097V163.891C195.097 164.166 195.133 164.377 195.203 164.524C195.279 164.67 195.39 164.773 195.537 164.831C195.683 164.884 195.868 164.911 196.091 164.911C196.249 164.911 196.389 164.905 196.512 164.893C196.641 164.875 196.75 164.858 196.838 164.84L196.846 166.703C196.63 166.774 196.395 166.829 196.143 166.87C195.891 166.911 195.613 166.932 195.308 166.932C194.752 166.932 194.265 166.841 193.849 166.66C193.439 166.472 193.123 166.173 192.9 165.763C192.677 165.353 192.566 164.814 192.566 164.146V154.9ZM202.832 157.246V159.039H197.295V157.246H202.832ZM198.666 154.9H201.197V163.891C201.197 164.166 201.232 164.377 201.302 164.524C201.379 164.67 201.49 164.773 201.636 164.831C201.783 164.884 201.968 164.911 202.19 164.911C202.348 164.911 202.489 164.905 202.612 164.893C202.741 164.875 202.849 164.858 202.937 164.84L202.946 166.703C202.729 166.774 202.495 166.829 202.243 166.87C201.991 166.911 201.713 166.932 201.408 166.932C200.851 166.932 200.365 166.841 199.949 166.66C199.539 166.472 199.222 166.173 199 165.763C198.777 165.353 198.666 164.814 198.666 164.146V154.9ZM206.804 159.075V170.412H204.273V157.246H206.62L206.804 159.075ZM212.825 161.896V162.08C212.825 162.772 212.743 163.413 212.579 164.005C212.421 164.597 212.186 165.113 211.876 165.552C211.565 165.986 211.178 166.326 210.716 166.572C210.259 166.812 209.731 166.932 209.134 166.932C208.553 166.932 208.05 166.815 207.622 166.58C207.194 166.346 206.834 166.018 206.541 165.596C206.254 165.168 206.022 164.673 205.846 164.111C205.671 163.548 205.536 162.945 205.442 162.3V161.817C205.536 161.125 205.671 160.493 205.846 159.918C206.022 159.338 206.254 158.837 206.541 158.415C206.834 157.988 207.191 157.657 207.613 157.422C208.041 157.188 208.542 157.071 209.116 157.071C209.719 157.071 210.25 157.185 210.707 157.413C211.17 157.642 211.556 157.97 211.867 158.398C212.183 158.826 212.421 159.335 212.579 159.927C212.743 160.519 212.825 161.175 212.825 161.896ZM210.285 162.08V161.896C210.285 161.492 210.25 161.12 210.179 160.78C210.115 160.434 210.01 160.132 209.863 159.874C209.722 159.617 209.535 159.417 209.301 159.277C209.072 159.13 208.794 159.057 208.466 159.057C208.12 159.057 207.824 159.113 207.578 159.224C207.338 159.335 207.141 159.496 206.989 159.707C206.837 159.918 206.722 160.17 206.646 160.463C206.57 160.756 206.523 161.087 206.506 161.456V162.678C206.535 163.112 206.617 163.501 206.752 163.847C206.886 164.187 207.094 164.456 207.376 164.656C207.657 164.855 208.026 164.954 208.483 164.954C208.817 164.954 209.098 164.881 209.327 164.735C209.555 164.582 209.74 164.374 209.881 164.111C210.027 163.847 210.13 163.542 210.188 163.197C210.253 162.851 210.285 162.479 210.285 162.08ZM219.54 164.128C219.54 163.947 219.487 163.783 219.382 163.636C219.276 163.49 219.08 163.355 218.793 163.232C218.511 163.103 218.104 162.986 217.571 162.88C217.091 162.775 216.642 162.643 216.226 162.485C215.816 162.321 215.459 162.124 215.154 161.896C214.855 161.667 214.621 161.398 214.451 161.087C214.281 160.771 214.196 160.411 214.196 160.006C214.196 159.608 214.281 159.233 214.451 158.881C214.627 158.53 214.876 158.219 215.198 157.95C215.526 157.674 215.925 157.46 216.393 157.308C216.868 157.15 217.401 157.071 217.993 157.071C218.819 157.071 219.528 157.203 220.12 157.466C220.718 157.73 221.175 158.093 221.491 158.556C221.813 159.013 221.974 159.535 221.974 160.12H219.443C219.443 159.874 219.39 159.655 219.285 159.461C219.185 159.262 219.027 159.107 218.81 158.995C218.599 158.878 218.324 158.82 217.984 158.82C217.703 158.82 217.46 158.87 217.255 158.969C217.05 159.063 216.891 159.192 216.78 159.356C216.675 159.514 216.622 159.69 216.622 159.883C216.622 160.03 216.651 160.161 216.71 160.279C216.774 160.39 216.877 160.493 217.017 160.586C217.158 160.68 217.34 160.768 217.562 160.85C217.791 160.926 218.072 160.996 218.406 161.061C219.092 161.202 219.704 161.386 220.243 161.615C220.782 161.837 221.21 162.142 221.526 162.529C221.843 162.91 222.001 163.411 222.001 164.032C222.001 164.453 221.907 164.84 221.719 165.192C221.532 165.543 221.262 165.851 220.911 166.115C220.559 166.372 220.137 166.575 219.645 166.721C219.159 166.862 218.611 166.932 218.002 166.932C217.117 166.932 216.367 166.774 215.752 166.457C215.142 166.141 214.679 165.74 214.363 165.253C214.052 164.761 213.897 164.257 213.897 163.742H216.297C216.308 164.087 216.396 164.366 216.56 164.577C216.73 164.787 216.944 164.94 217.202 165.034C217.466 165.127 217.75 165.174 218.054 165.174C218.383 165.174 218.655 165.13 218.872 165.042C219.089 164.949 219.253 164.826 219.364 164.673C219.481 164.515 219.54 164.333 219.54 164.128ZM223.741 165.535C223.741 165.16 223.87 164.846 224.128 164.594C224.391 164.342 224.74 164.216 225.174 164.216C225.607 164.216 225.953 164.342 226.211 164.594C226.474 164.846 226.606 165.16 226.606 165.535C226.606 165.91 226.474 166.223 226.211 166.475C225.953 166.727 225.607 166.853 225.174 166.853C224.74 166.853 224.391 166.727 224.128 166.475C223.87 166.223 223.741 165.91 223.741 165.535ZM223.741 158.284C223.741 157.909 223.87 157.595 224.128 157.343C224.391 157.091 224.74 156.965 225.174 156.965C225.607 156.965 225.953 157.091 226.211 157.343C226.474 157.595 226.606 157.909 226.606 158.284C226.606 158.659 226.474 158.972 226.211 159.224C225.953 159.476 225.607 159.602 225.174 159.602C224.74 159.602 224.391 159.476 224.128 159.224C223.87 158.972 223.741 158.659 223.741 158.284ZM234.191 153.959L229.498 167.855H227.617L232.31 153.959H234.191ZM238.761 153.959L234.068 167.855H232.187L236.881 153.959H238.761ZM242.646 157.246V166.756H240.106V157.246H242.646ZM239.948 154.768C239.948 154.399 240.077 154.094 240.335 153.854C240.593 153.614 240.938 153.494 241.372 153.494C241.8 153.494 242.142 153.614 242.4 153.854C242.664 154.094 242.796 154.399 242.796 154.768C242.796 155.137 242.664 155.442 242.4 155.682C242.142 155.922 241.8 156.042 241.372 156.042C240.938 156.042 240.593 155.922 240.335 155.682C240.077 155.442 239.948 155.137 239.948 154.768ZM249.396 157.246V159.039H243.859V157.246H249.396ZM245.23 154.9H247.761V163.891C247.761 164.166 247.797 164.377 247.867 164.524C247.943 164.67 248.054 164.773 248.201 164.831C248.347 164.884 248.532 164.911 248.755 164.911C248.913 164.911 249.053 164.905 249.177 164.893C249.305 164.875 249.414 164.858 249.502 164.84L249.51 166.703C249.294 166.774 249.059 166.829 248.807 166.87C248.555 166.911 248.277 166.932 247.972 166.932C247.416 166.932 246.929 166.841 246.513 166.66C246.103 166.472 245.787 166.173 245.564 165.763C245.342 165.353 245.23 164.814 245.23 164.146V154.9ZM255.97 164.612V160.375C255.97 160.071 255.921 159.81 255.821 159.593C255.721 159.37 255.566 159.198 255.355 159.075C255.15 158.952 254.884 158.89 254.555 158.89C254.274 158.89 254.031 158.94 253.826 159.039C253.621 159.133 253.463 159.271 253.351 159.453C253.24 159.628 253.184 159.836 253.184 160.077H250.653C250.653 159.672 250.747 159.288 250.934 158.925C251.122 158.562 251.394 158.243 251.752 157.967C252.109 157.686 252.534 157.466 253.026 157.308C253.524 157.15 254.081 157.071 254.696 157.071C255.434 157.071 256.091 157.194 256.665 157.44C257.239 157.686 257.69 158.055 258.018 158.547C258.352 159.039 258.519 159.655 258.519 160.393V164.462C258.519 164.984 258.552 165.411 258.616 165.745C258.68 166.074 258.774 166.361 258.897 166.607V166.756H256.34C256.217 166.498 256.123 166.176 256.058 165.789C256 165.397 255.97 165.004 255.97 164.612ZM256.304 160.964L256.322 162.397H254.907C254.573 162.397 254.283 162.435 254.037 162.511C253.791 162.587 253.589 162.696 253.43 162.836C253.272 162.971 253.155 163.129 253.079 163.311C253.009 163.493 252.973 163.692 252.973 163.909C252.973 164.125 253.023 164.322 253.123 164.497C253.222 164.667 253.366 164.802 253.553 164.902C253.741 164.995 253.961 165.042 254.213 165.042C254.594 165.042 254.925 164.966 255.206 164.814C255.487 164.661 255.704 164.474 255.856 164.251C256.014 164.029 256.096 163.818 256.102 163.619L256.77 164.691C256.677 164.931 256.548 165.18 256.384 165.438C256.225 165.696 256.023 165.939 255.777 166.167C255.531 166.39 255.235 166.575 254.889 166.721C254.544 166.862 254.134 166.932 253.659 166.932C253.055 166.932 252.508 166.812 252.015 166.572C251.529 166.326 251.142 165.989 250.855 165.561C250.574 165.127 250.433 164.635 250.433 164.084C250.433 163.586 250.527 163.144 250.715 162.757C250.902 162.37 251.177 162.045 251.541 161.782C251.91 161.512 252.37 161.31 252.921 161.175C253.471 161.035 254.11 160.964 254.837 160.964H256.304ZM263.142 153.256V166.756H260.602V153.256H263.142ZM264.83 162.098V161.913C264.83 161.216 264.929 160.575 265.129 159.989C265.328 159.397 265.618 158.884 265.999 158.451C266.38 158.017 266.848 157.68 267.405 157.44C267.962 157.194 268.6 157.071 269.321 157.071C270.042 157.071 270.683 157.194 271.246 157.44C271.808 157.68 272.28 158.017 272.661 158.451C273.048 158.884 273.341 159.397 273.54 159.989C273.739 160.575 273.839 161.216 273.839 161.913V162.098C273.839 162.789 273.739 163.431 273.54 164.023C273.341 164.609 273.048 165.121 272.661 165.561C272.28 165.995 271.811 166.331 271.255 166.572C270.698 166.812 270.059 166.932 269.339 166.932C268.618 166.932 267.976 166.812 267.414 166.572C266.857 166.331 266.385 165.995 265.999 165.561C265.618 165.121 265.328 164.609 265.129 164.023C264.929 163.431 264.83 162.789 264.83 162.098ZM267.361 161.913V162.098C267.361 162.496 267.396 162.869 267.467 163.214C267.537 163.56 267.648 163.865 267.801 164.128C267.959 164.386 268.164 164.588 268.416 164.735C268.668 164.881 268.975 164.954 269.339 164.954C269.69 164.954 269.992 164.881 270.244 164.735C270.496 164.588 270.698 164.386 270.85 164.128C271.003 163.865 271.114 163.56 271.184 163.214C271.26 162.869 271.299 162.496 271.299 162.098V161.913C271.299 161.527 271.26 161.163 271.184 160.824C271.114 160.478 271 160.173 270.842 159.91C270.689 159.64 270.487 159.429 270.235 159.277C269.983 159.124 269.678 159.048 269.321 159.048C268.964 159.048 268.659 159.124 268.407 159.277C268.161 159.429 267.959 159.64 267.801 159.91C267.648 160.173 267.537 160.478 267.467 160.824C267.396 161.163 267.361 161.527 267.361 161.913ZM281.01 164.682V153.256H283.559V166.756H281.265L281.01 164.682ZM274.999 162.116V161.931C274.999 161.204 275.081 160.545 275.245 159.953C275.409 159.356 275.649 158.843 275.966 158.415C276.282 157.988 276.672 157.657 277.135 157.422C277.597 157.188 278.125 157.071 278.717 157.071C279.273 157.071 279.76 157.188 280.176 157.422C280.597 157.657 280.955 157.991 281.248 158.424C281.547 158.852 281.787 159.359 281.969 159.945C282.15 160.525 282.282 161.161 282.364 161.852V162.256C282.282 162.918 282.15 163.534 281.969 164.102C281.787 164.67 281.547 165.168 281.248 165.596C280.955 166.018 280.597 166.346 280.176 166.58C279.754 166.815 279.261 166.932 278.699 166.932C278.107 166.932 277.58 166.812 277.117 166.572C276.66 166.331 276.273 165.995 275.957 165.561C275.646 165.127 275.409 164.618 275.245 164.032C275.081 163.446 274.999 162.807 274.999 162.116ZM277.53 161.931V162.116C277.53 162.508 277.559 162.874 277.618 163.214C277.682 163.554 277.785 163.856 277.926 164.12C278.072 164.377 278.26 164.579 278.488 164.726C278.722 164.867 279.007 164.937 279.341 164.937C279.774 164.937 280.132 164.84 280.413 164.647C280.694 164.448 280.908 164.175 281.054 163.829C281.207 163.484 281.295 163.085 281.318 162.634V161.483C281.301 161.114 281.248 160.783 281.16 160.49C281.078 160.191 280.955 159.936 280.791 159.725C280.633 159.514 280.433 159.35 280.193 159.233C279.959 159.116 279.68 159.057 279.358 159.057C279.03 159.057 278.749 159.133 278.514 159.286C278.28 159.432 278.09 159.634 277.943 159.892C277.802 160.15 277.697 160.454 277.627 160.806C277.562 161.152 277.53 161.527 277.53 161.931ZM289.914 166.932C289.176 166.932 288.513 166.815 287.927 166.58C287.342 166.34 286.844 166.009 286.433 165.587C286.029 165.165 285.719 164.676 285.502 164.12C285.285 163.557 285.177 162.959 285.177 162.327V161.975C285.177 161.254 285.279 160.595 285.484 159.997C285.689 159.4 285.982 158.881 286.363 158.442C286.75 158.002 287.219 157.665 287.769 157.431C288.32 157.191 288.941 157.071 289.633 157.071C290.306 157.071 290.904 157.182 291.426 157.405C291.947 157.627 292.384 157.944 292.735 158.354C293.093 158.764 293.362 159.256 293.544 159.83C293.725 160.399 293.816 161.032 293.816 161.729V162.784H286.258V161.096H291.329V160.903C291.329 160.551 291.264 160.238 291.135 159.962C291.012 159.681 290.825 159.458 290.573 159.294C290.321 159.13 289.999 159.048 289.606 159.048C289.272 159.048 288.985 159.121 288.745 159.268C288.505 159.414 288.308 159.62 288.156 159.883C288.01 160.147 287.898 160.457 287.822 160.815C287.752 161.166 287.717 161.553 287.717 161.975V162.327C287.717 162.707 287.769 163.059 287.875 163.381C287.986 163.703 288.141 163.982 288.341 164.216C288.546 164.451 288.792 164.632 289.079 164.761C289.372 164.89 289.703 164.954 290.072 164.954C290.529 164.954 290.954 164.867 291.346 164.691C291.745 164.509 292.088 164.237 292.375 163.873L293.605 165.209C293.406 165.496 293.134 165.772 292.788 166.036C292.448 166.299 292.038 166.516 291.557 166.686C291.077 166.85 290.529 166.932 289.914 166.932ZM298.369 164.911L300.478 157.246H303.124L299.916 166.756H298.316L298.369 164.911ZM296.919 157.246L299.037 164.919L299.081 166.756H297.472L294.264 157.246H296.919ZM303.08 165.535C303.08 165.16 303.209 164.846 303.467 164.594C303.73 164.342 304.079 164.216 304.512 164.216C304.946 164.216 305.292 164.342 305.55 164.594C305.813 164.846 305.945 165.16 305.945 165.535C305.945 165.91 305.813 166.223 305.55 166.475C305.292 166.727 304.946 166.853 304.512 166.853C304.079 166.853 303.73 166.727 303.467 166.475C303.209 166.223 303.08 165.91 303.08 165.535ZM312.106 164.954C312.417 164.954 312.692 164.896 312.932 164.779C313.173 164.656 313.36 164.486 313.495 164.269C313.635 164.046 313.709 163.786 313.715 163.487H316.096C316.091 164.155 315.912 164.749 315.56 165.271C315.209 165.786 314.737 166.194 314.145 166.493C313.553 166.786 312.891 166.932 312.159 166.932C311.421 166.932 310.776 166.809 310.225 166.563C309.68 166.317 309.226 165.977 308.863 165.543C308.5 165.104 308.227 164.594 308.046 164.014C307.864 163.428 307.773 162.801 307.773 162.133V161.878C307.773 161.204 307.864 160.578 308.046 159.997C308.227 159.411 308.5 158.902 308.863 158.468C309.226 158.029 309.68 157.686 310.225 157.44C310.77 157.194 311.409 157.071 312.141 157.071C312.921 157.071 313.603 157.22 314.189 157.519C314.781 157.818 315.244 158.245 315.578 158.802C315.918 159.353 316.091 160.006 316.096 160.762H313.715C313.709 160.446 313.641 160.159 313.512 159.901C313.389 159.643 313.208 159.438 312.968 159.286C312.733 159.127 312.443 159.048 312.097 159.048C311.728 159.048 311.427 159.127 311.192 159.286C310.958 159.438 310.776 159.649 310.647 159.918C310.518 160.182 310.427 160.484 310.375 160.824C310.328 161.158 310.304 161.509 310.304 161.878V162.133C310.304 162.502 310.328 162.857 310.375 163.197C310.422 163.536 310.51 163.838 310.638 164.102C310.773 164.366 310.958 164.574 311.192 164.726C311.427 164.878 311.731 164.954 312.106 164.954ZM317.16 162.098V161.913C317.16 161.216 317.26 160.575 317.459 159.989C317.658 159.397 317.948 158.884 318.329 158.451C318.71 158.017 319.178 157.68 319.735 157.44C320.292 157.194 320.93 157.071 321.651 157.071C322.372 157.071 323.013 157.194 323.576 157.44C324.138 157.68 324.61 158.017 324.991 158.451C325.378 158.884 325.671 159.397 325.87 159.989C326.069 160.575 326.169 161.216 326.169 161.913V162.098C326.169 162.789 326.069 163.431 325.87 164.023C325.671 164.609 325.378 165.121 324.991 165.561C324.61 165.995 324.141 166.331 323.585 166.572C323.028 166.812 322.389 166.932 321.669 166.932C320.948 166.932 320.306 166.812 319.744 166.572C319.187 166.331 318.716 165.995 318.329 165.561C317.948 165.121 317.658 164.609 317.459 164.023C317.26 163.431 317.16 162.789 317.16 162.098ZM319.691 161.913V162.098C319.691 162.496 319.726 162.869 319.797 163.214C319.867 163.56 319.978 163.865 320.131 164.128C320.289 164.386 320.494 164.588 320.746 164.735C320.998 164.881 321.305 164.954 321.669 164.954C322.02 164.954 322.322 164.881 322.574 164.735C322.826 164.588 323.028 164.386 323.18 164.128C323.333 163.865 323.444 163.56 323.514 163.214C323.591 162.869 323.629 162.496 323.629 162.098V161.913C323.629 161.527 323.591 161.163 323.514 160.824C323.444 160.478 323.33 160.173 323.172 159.91C323.019 159.64 322.817 159.429 322.565 159.277C322.313 159.124 322.009 159.048 321.651 159.048C321.294 159.048 320.989 159.124 320.737 159.277C320.491 159.429 320.289 159.64 320.131 159.91C319.978 160.173 319.867 160.478 319.797 160.824C319.726 161.163 319.691 161.527 319.691 161.913ZM330.256 159.215V166.756H327.716V157.246H330.097L330.256 159.215ZM329.904 161.667H329.201C329.201 161.005 329.28 160.396 329.438 159.839C329.602 159.277 329.84 158.79 330.15 158.38C330.467 157.964 330.856 157.642 331.319 157.413C331.782 157.185 332.318 157.071 332.927 157.071C333.349 157.071 333.736 157.135 334.088 157.264C334.439 157.387 334.741 157.583 334.993 157.853C335.251 158.117 335.45 158.462 335.591 158.89C335.731 159.312 335.802 159.819 335.802 160.411V166.756H333.27V160.692C333.27 160.258 333.212 159.924 333.094 159.69C332.977 159.455 332.81 159.291 332.594 159.198C332.383 159.104 332.128 159.057 331.829 159.057C331.501 159.057 331.214 159.124 330.968 159.259C330.727 159.394 330.528 159.581 330.37 159.822C330.212 160.056 330.094 160.331 330.018 160.648C329.942 160.964 329.904 161.304 329.904 161.667ZM335.564 161.377L334.659 161.492C334.659 160.87 334.735 160.293 334.887 159.76C335.046 159.227 335.277 158.758 335.582 158.354C335.892 157.95 336.276 157.636 336.733 157.413C337.19 157.185 337.718 157.071 338.315 157.071C338.772 157.071 339.188 157.138 339.563 157.273C339.938 157.402 340.258 157.61 340.521 157.897C340.791 158.178 340.996 158.547 341.136 159.004C341.283 159.461 341.356 160.021 341.356 160.683V166.756H338.816V160.683C338.816 160.244 338.758 159.91 338.64 159.681C338.529 159.447 338.365 159.286 338.148 159.198C337.937 159.104 337.685 159.057 337.392 159.057C337.088 159.057 336.821 159.119 336.593 159.242C336.364 159.359 336.174 159.523 336.021 159.734C335.869 159.945 335.755 160.191 335.678 160.472C335.602 160.747 335.564 161.049 335.564 161.377ZM348.783 153.959L344.09 167.855H342.209L346.902 153.959H348.783ZM355.137 164.128C355.137 163.947 355.085 163.783 354.979 163.636C354.874 163.49 354.677 163.355 354.39 163.232C354.109 163.103 353.702 162.986 353.169 162.88C352.688 162.775 352.24 162.643 351.824 162.485C351.414 162.321 351.056 162.124 350.752 161.896C350.453 161.667 350.219 161.398 350.049 161.087C349.879 160.771 349.794 160.411 349.794 160.006C349.794 159.608 349.879 159.233 350.049 158.881C350.224 158.53 350.473 158.219 350.796 157.95C351.124 157.674 351.522 157.46 351.991 157.308C352.466 157.15 352.999 157.071 353.591 157.071C354.417 157.071 355.126 157.203 355.718 157.466C356.315 157.73 356.772 158.093 357.089 158.556C357.411 159.013 357.572 159.535 357.572 160.12H355.041C355.041 159.874 354.988 159.655 354.883 159.461C354.783 159.262 354.625 159.107 354.408 158.995C354.197 158.878 353.922 158.82 353.582 158.82C353.301 158.82 353.057 158.87 352.852 158.969C352.647 159.063 352.489 159.192 352.378 159.356C352.272 159.514 352.219 159.69 352.219 159.883C352.219 160.03 352.249 160.161 352.307 160.279C352.372 160.39 352.474 160.493 352.615 160.586C352.756 160.68 352.937 160.768 353.16 160.85C353.388 160.926 353.67 160.996 354.004 161.061C354.689 161.202 355.302 161.386 355.841 161.615C356.38 161.837 356.807 162.142 357.124 162.529C357.44 162.91 357.598 163.411 357.598 164.032C357.598 164.453 357.505 164.84 357.317 165.192C357.13 165.543 356.86 165.851 356.509 166.115C356.157 166.372 355.735 166.575 355.243 166.721C354.757 166.862 354.209 166.932 353.599 166.932C352.715 166.932 351.965 166.774 351.349 166.457C350.74 166.141 350.277 165.74 349.961 165.253C349.65 164.761 349.495 164.257 349.495 163.742H351.894C351.906 164.087 351.994 164.366 352.158 164.577C352.328 164.787 352.542 164.94 352.8 165.034C353.063 165.127 353.347 165.174 353.652 165.174C353.98 165.174 354.253 165.13 354.469 165.042C354.686 164.949 354.85 164.826 354.962 164.673C355.079 164.515 355.137 164.333 355.137 164.128ZM363.619 166.932C362.881 166.932 362.219 166.815 361.633 166.58C361.047 166.34 360.549 166.009 360.138 165.587C359.734 165.165 359.424 164.676 359.207 164.12C358.99 163.557 358.882 162.959 358.882 162.327V161.975C358.882 161.254 358.984 160.595 359.189 159.997C359.394 159.4 359.687 158.881 360.068 158.442C360.455 158.002 360.924 157.665 361.474 157.431C362.025 157.191 362.646 157.071 363.338 157.071C364.011 157.071 364.609 157.182 365.131 157.405C365.652 157.627 366.089 157.944 366.44 158.354C366.798 158.764 367.067 159.256 367.249 159.83C367.43 160.399 367.521 161.032 367.521 161.729V162.784H359.963V161.096H365.034V160.903C365.034 160.551 364.969 160.238 364.841 159.962C364.718 159.681 364.53 159.458 364.278 159.294C364.026 159.13 363.704 159.048 363.311 159.048C362.977 159.048 362.69 159.121 362.45 159.268C362.21 159.414 362.013 159.62 361.861 159.883C361.715 160.147 361.603 160.457 361.527 160.815C361.457 161.166 361.422 161.553 361.422 161.975V162.327C361.422 162.707 361.474 163.059 361.58 163.381C361.691 163.703 361.846 163.982 362.046 164.216C362.251 164.451 362.497 164.632 362.784 164.761C363.077 164.89 363.408 164.954 363.777 164.954C364.234 164.954 364.659 164.867 365.052 164.691C365.45 164.509 365.793 164.237 366.08 163.873L367.31 165.209C367.111 165.496 366.839 165.772 366.493 166.036C366.153 166.299 365.743 166.516 365.262 166.686C364.782 166.85 364.234 166.932 363.619 166.932ZM374.588 164.48V157.246H377.119V166.756H374.737L374.588 164.48ZM374.869 162.529L375.616 162.511C375.616 163.144 375.543 163.733 375.396 164.278C375.25 164.817 375.03 165.286 374.737 165.684C374.444 166.077 374.075 166.384 373.63 166.607C373.184 166.824 372.66 166.932 372.056 166.932C371.594 166.932 371.166 166.868 370.773 166.739C370.386 166.604 370.052 166.396 369.771 166.115C369.496 165.828 369.279 165.461 369.121 165.016C368.969 164.565 368.892 164.023 368.892 163.39V157.246H371.424V163.408C371.424 163.689 371.456 163.926 371.52 164.12C371.591 164.313 371.687 164.471 371.81 164.594C371.933 164.717 372.077 164.805 372.241 164.858C372.411 164.911 372.598 164.937 372.803 164.937C373.325 164.937 373.735 164.831 374.034 164.62C374.339 164.41 374.552 164.122 374.676 163.759C374.804 163.39 374.869 162.98 374.869 162.529ZM381.724 153.256V166.756H379.184V153.256H381.724ZM386.488 157.246V166.756H383.948V157.246H386.488ZM383.79 154.768C383.79 154.399 383.919 154.094 384.177 153.854C384.434 153.614 384.78 153.494 385.214 153.494C385.641 153.494 385.984 153.614 386.242 153.854C386.506 154.094 386.637 154.399 386.637 154.768C386.637 155.137 386.506 155.442 386.242 155.682C385.984 155.922 385.641 156.042 385.214 156.042C384.78 156.042 384.434 155.922 384.177 155.682C383.919 155.442 383.79 155.137 383.79 154.768ZM391.058 159.277V166.756H388.527V157.246H390.9L391.058 159.277ZM390.689 161.667H390.004C390.004 160.964 390.094 160.331 390.276 159.769C390.458 159.201 390.713 158.717 391.041 158.319C391.369 157.914 391.759 157.607 392.21 157.396C392.667 157.179 393.177 157.071 393.739 157.071C394.184 157.071 394.592 157.135 394.961 157.264C395.33 157.393 395.646 157.598 395.91 157.879C396.179 158.161 396.385 158.533 396.525 158.995C396.672 159.458 396.745 160.024 396.745 160.692V166.756H394.196V160.683C394.196 160.261 394.137 159.933 394.02 159.699C393.903 159.464 393.73 159.3 393.502 159.206C393.279 159.107 393.004 159.057 392.676 159.057C392.336 159.057 392.04 159.124 391.788 159.259C391.542 159.394 391.337 159.581 391.173 159.822C391.014 160.056 390.894 160.331 390.812 160.648C390.73 160.964 390.689 161.304 390.689 161.667ZM401.201 153.247V166.756H398.67V153.247H401.201ZM407.195 157.246L403.064 161.957L400.849 164.199L399.927 162.37L401.684 160.138L404.154 157.246H407.195ZM404.567 166.756L401.755 162.362L403.504 160.832L407.485 166.756H404.567Z" fill="black"/>
</g>
<defs>
<clipPath id="clip0_1_96">
<rect width="562" height="415" fill="white"/>
</clipPath>
</defs>
</svg>
